# xmcd
#
# Track frame offsets:
#	150
#	13722
#	26513
#	48535
#	64943
#	84304
#	103039
#	113987
#	125354
#	134667
#	151770
#
# Disc length: 2482 seconds
#
# Revision: 0
# Processed by: cddbd v1.5.1PL0 Copyright (c) Steve Scherf et al.
# Submitted via: dBpowerAMP V4.0
#
DISCID=8e09b00b
DTITLE=Proud Mary - Love And Light
DYEAR=1900
DGENRE=
TTITLE0=Love To Love You
TTITLE1=Hats Off!
TTITLE2=Love And Light
TTITLE3=Mexico
TTITLE4=Rain On Me
TTITLE5=The Blues
TTITLE6=She Don't Know
TTITLE7=Take It Or Leave It
TTITLE8=Mundane Morning
TTITLE9=Stand By My Woman
TTITLE10=Into Your Arms
EXTD=
EXTT0=
EXTT1=
EXTT2=
EXTT3=
EXTT4=
EXTT5=
EXTT6=
EXTT7=
EXTT8=
EXTT9=
EXTT10=
PLAYORDER=
